<?xml version="1.0" encoding="utf-8"?>
<svg xmlns="http://www.w3.org/2000/svg" width="132.004" height="132">
  <defs>
    <linearGradient id="b">
      <stop offset="0" stop-color="#3771c8"/>
      <stop stop-color="#3771c8" offset="0.128"/>
      <stop offset="1" stop-color="#60f" stop-opacity="0"/>
    </linearGradient>
    <linearGradient id="a">
      <stop offset="0" stop-color="#fd5"/>
      <stop offset="0.1" stop-color="#fd5"/>
      <stop offset="0.5" stop-color="#ff543e"/>
      <stop offset="1" stop-color="#c837ab"/>
    </linearGradient>
    <radialGradient id="c" cx="158.429" cy="578.088" r="65" gradientUnits="userSpaceOnUse" gradientTransform="matrix(0, -1.608673, 1.561796, 0, -862.501282, 382.345826)" href="#a"/>
    <radialGradient id="d" cx="147.694" cy="473.455" r="65" gradientUnits="userSpaceOnUse" gradientTransform="matrix(0.121126, 0.62942, -2.494248, 0.519624, 1169.057635, -311.608475)" href="#b"/>
  </defs>
  <path fill="url(#c)" d="M 66.184 13.854 C 43.195 13.854 36.471 13.876 35.164 13.98 C 30.446 14.357 27.51 15.068 24.311 16.594 C 21.847 17.767 19.904 19.126 17.985 21.032 C 14.49 24.507 12.373 28.783 11.607 33.866 C 11.235 36.334 11.126 36.836 11.104 49.44 C 11.095 53.64 11.104 59.17 11.104 66.586 C 11.104 88.598 11.128 95.035 11.24 96.284 C 11.62 100.683 12.34 103.451 13.865 106.479 C 16.779 112.273 22.343 116.624 28.9 118.247 C 31.169 118.808 33.676 119.115 36.895 119.262 C 38.259 119.319 52.159 119.359 66.066 119.359 C 79.974 119.359 93.882 119.343 95.211 119.278 C 98.939 119.11 101.103 118.832 103.496 118.239 C 110.094 116.608 115.557 112.322 118.529 106.446 C 120.025 103.491 120.782 100.619 121.126 96.449 C 121.2 95.54 121.232 81.046 121.232 66.573 C 121.232 52.096 121.198 37.629 121.123 36.72 C 120.776 32.483 120.018 29.634 118.475 26.623 C 117.208 24.157 115.802 22.317 113.761 20.435 C 110.118 17.1 105.663 15.072 100.354 14.337 C 97.781 13.981 97.268 13.876 84.106 13.854 L 66.184 13.854 Z" style=""/>
  <path fill="url(#d)" d="M 66.486 20.587 C 47.586 20.587 42.058 20.608 40.983 20.701 C 37.105 21.035 34.691 21.671 32.062 23.033 C 30.035 24.08 28.436 25.293 26.86 26.995 C 23.988 30.097 22.246 33.914 21.616 38.451 C 21.309 40.654 21.22 41.103 21.202 52.354 C 21.196 56.103 21.202 61.039 21.202 67.66 C 21.202 87.309 21.224 93.054 21.314 94.17 C 21.627 98.097 22.219 100.567 23.473 103.271 C 25.868 108.444 30.444 112.327 35.833 113.777 C 37.699 114.276 39.761 114.551 42.407 114.682 C 43.528 114.733 54.956 114.769 66.39 114.769 C 77.824 114.769 89.259 114.754 90.352 114.696 C 93.416 114.546 95.195 114.298 97.162 113.769 C 102.587 112.313 107.078 108.487 109.524 103.241 C 110.751 100.604 111.375 98.04 111.657 94.317 C 111.718 93.506 111.745 80.568 111.745 67.647 C 111.745 54.725 111.717 41.811 111.656 40.999 C 111.37 37.216 110.746 34.673 109.478 31.985 C 108.436 29.785 107.28 28.141 105.602 26.461 C 102.607 23.485 98.944 21.674 94.58 21.019 C 92.464 20.701 92.043 20.607 81.222 20.587 L 66.486 20.587 Z" style=""/>
  <path fill="#fff" d="M66.004 18c-13.036 0-14.672.057-19.792.29-5.11.234-8.598 1.043-11.65 2.23-3.157 1.226-5.835 2.866-8.503 5.535-2.67 2.668-4.31 5.346-5.54 8.502-1.19 3.053-2 6.542-2.23 11.65C18.06 51.327 18 52.964 18 66s.058 14.667.29 19.787c.235 5.11 1.044 8.598 2.23 11.65 1.227 3.157 2.867 5.835 5.536 8.503 2.667 2.67 5.345 4.314 8.5 5.54 3.054 1.187 6.543 1.996 11.652 2.23 5.12.233 6.755.29 19.79.29 13.037 0 14.668-.057 19.788-.29 5.11-.234 8.602-1.043 11.656-2.23 3.156-1.226 5.83-2.87 8.497-5.54 2.67-2.668 4.31-5.346 5.54-8.502 1.18-3.053 1.99-6.542 2.23-11.65.23-5.12.29-6.752.29-19.788 0-13.036-.06-14.672-.29-19.792-.24-5.11-1.05-8.598-2.23-11.65-1.23-3.157-2.87-5.835-5.54-8.503-2.67-2.67-5.34-4.31-8.5-5.535-3.06-1.187-6.55-1.996-11.66-2.23-5.12-.233-6.75-.29-19.79-.29zm-4.306 8.65c1.278-.002 2.704 0 4.306 0 12.816 0 14.335.046 19.396.276 4.68.214 7.22.996 8.912 1.653 2.24.87 3.837 1.91 5.516 3.59 1.68 1.68 2.72 3.28 3.592 5.52.657 1.69 1.44 4.23 1.653 8.91.23 5.06.28 6.58.28 19.39s-.05 14.33-.28 19.39c-.214 4.68-.996 7.22-1.653 8.91-.87 2.24-1.912 3.835-3.592 5.514-1.68 1.68-3.275 2.72-5.516 3.59-1.69.66-4.232 1.44-8.912 1.654-5.06.23-6.58.28-19.396.28-12.817 0-14.336-.05-19.396-.28-4.68-.216-7.22-.998-8.913-1.655-2.24-.87-3.84-1.91-5.52-3.59-1.68-1.68-2.72-3.276-3.592-5.517-.657-1.69-1.44-4.23-1.653-8.91-.23-5.06-.276-6.58-.276-19.398s.046-14.33.276-19.39c.214-4.68.996-7.22 1.653-8.912.87-2.24 1.912-3.84 3.592-5.52 1.68-1.68 3.28-2.72 5.52-3.592 1.692-.66 4.233-1.44 8.913-1.655 4.428-.2 6.144-.26 15.09-.27zm29.928 7.97c-3.18 0-5.76 2.577-5.76 5.758 0 3.18 2.58 5.76 5.76 5.76 3.18 0 5.76-2.58 5.76-5.76 0-3.18-2.58-5.76-5.76-5.76zm-25.622 6.73c-13.613 0-24.65 11.037-24.65 24.65 0 13.613 11.037 24.645 24.65 24.645C79.617 90.645 90.65 79.613 90.65 66S79.616 41.35 66.003 41.35zm0 8.65c8.836 0 16 7.163 16 16 0 8.836-7.164 16-16 16-8.837 0-16-7.164-16-16 0-8.837 7.163-16 16-16z"/>
</svg>